<svg width="100" height="100" viewBox="0 0 100 100" fill="none" xmlns="http://www.w3.org/2000/svg">
<circle cx="50" cy="50" r="50" fill="#F8F8F8"/>
<mask id="mask0_157_308" style="mask-type:alpha" maskUnits="userSpaceOnUse" x="22" y="22" width="56" height="56">
<rect x="22" y="22" width="56" height="56" fill="#D9D9D9"/>
</mask>
<g mask="url(#mask0_157_308)">
<path d="M58.518 46.9084C59.393 46.9084 60.1367 46.6022 60.7492 45.9897C61.3617 45.3772 61.668 44.6334 61.668 43.7584C61.668 42.8834 61.3617 42.1397 60.7492 41.5272C60.1367 40.9147 59.393 40.6084 58.518 40.6084C57.643 40.6084 56.8992 40.9147 56.2867 41.5272C55.6742 42.1397 55.368 42.8834 55.368 43.7584C55.368 44.6334 55.6742 45.3772 56.2867 45.9897C56.8992 46.6022 57.643 46.9084 58.518 46.9084ZM41.4846 46.9084C42.3596 46.9084 43.1034 46.6022 43.7159 45.9897C44.3284 45.3772 44.6346 44.6334 44.6346 43.7584C44.6346 42.8834 44.3284 42.1397 43.7159 41.5272C43.1034 40.9147 42.3596 40.6084 41.4846 40.6084C40.6096 40.6084 39.8659 40.9147 39.2534 41.5272C38.6409 42.1397 38.3346 42.8834 38.3346 43.7584C38.3346 44.6334 38.6409 45.3772 39.2534 45.9897C39.8659 46.6022 40.6096 46.9084 41.4846 46.9084ZM50.0013 62.7751C52.568 62.7751 54.9305 62.0848 57.0888 60.7043C59.2471 59.3237 60.8124 57.4473 61.7846 55.0751H58.7513C57.8569 56.6306 56.6319 57.8265 55.0763 58.6626C53.5207 59.4987 51.8388 59.9168 50.0305 59.9168C48.2221 59.9168 46.5305 59.5084 44.9555 58.6917C43.3805 57.8751 42.1652 56.6695 41.3096 55.0751H38.218C39.2291 57.4473 40.8041 59.3237 42.943 60.7043C45.0819 62.0848 47.4346 62.7751 50.0013 62.7751ZM50.0013 73.3334C46.7735 73.3334 43.7402 72.7209 40.9013 71.4959C38.0624 70.2709 35.593 68.6084 33.493 66.5084C31.393 64.4084 29.7305 61.939 28.5055 59.1001C27.2805 56.2612 26.668 53.2279 26.668 50.0001C26.668 46.7723 27.2805 43.739 28.5055 40.9001C29.7305 38.0612 31.393 35.5917 33.493 33.4917C35.593 31.3917 38.0624 29.7292 40.9013 28.5042C43.7402 27.2792 46.7735 26.6667 50.0013 26.6667C53.2291 26.6667 56.2624 27.2792 59.1013 28.5042C61.9402 29.7292 64.4096 31.3917 66.5096 33.4917C68.6096 35.5917 70.2721 38.0612 71.4971 40.9001C72.7221 43.739 73.3346 46.7723 73.3346 50.0001C73.3346 53.2279 72.7221 56.2612 71.4971 59.1001C70.2721 61.939 68.6096 64.4084 66.5096 66.5084C64.4096 68.6084 61.9402 70.2709 59.1013 71.4959C56.2624 72.7209 53.2291 73.3334 50.0013 73.3334ZM50.0013 69.8334C55.5383 69.8334 60.2281 67.9121 64.0707 64.0695C67.9133 60.2265 69.8346 55.5367 69.8346 50.0001C69.8346 44.4631 67.9133 39.7733 64.0707 35.9307C60.2281 32.0881 55.5383 30.1667 50.0013 30.1667C44.4647 30.1667 39.7749 32.0881 35.9319 35.9307C32.0893 39.7733 30.168 44.4631 30.168 50.0001C30.168 55.5367 32.0893 60.2265 35.9319 64.0695C39.7749 67.9121 44.4647 69.8334 50.0013 69.8334Z" fill="#228B22"/>
</g>
</svg>
