<svg width="100" height="100" viewBox="0 0 100 100" fill="none" xmlns="http://www.w3.org/2000/svg">
<circle cx="50" cy="50" r="50" fill="#F8F8F8"/>
<mask id="mask0_157_328" style="mask-type:alpha" maskUnits="userSpaceOnUse" x="22" y="22" width="56" height="56">
<rect x="22" y="22" width="56" height="56" fill="#D9D9D9"/>
</mask>
<g mask="url(#mask0_157_328)">
<path d="M50 74.5C46.9667 71.8167 43.6514 69.7556 40.0542 68.3167C36.4569 66.8778 32.7722 66.1584 29 66.1584V41.1334C32.6556 41.1334 36.2819 41.9695 39.8792 43.6417C43.4764 45.3139 46.85 47.6473 50 50.6417C53.15 47.6473 56.5236 45.3139 60.1208 43.6417C63.7181 41.9695 67.3444 41.1334 71 41.1334V66.1584C67.2278 66.1584 63.5431 66.8778 59.9458 68.3167C56.3486 69.7556 53.0333 71.8167 50 74.5ZM50 70.0084C52.7611 68.025 55.6097 66.4403 58.5458 65.2542C61.4819 64.0681 64.4667 63.3195 67.5 63.0084V44.925C64.8556 45.3528 62.0653 46.4125 59.1292 48.1042C56.1931 49.7959 53.15 52.1389 50 55.1334C46.5778 51.9834 43.4667 49.5917 40.6667 47.9584C37.8667 46.325 35.1444 45.3139 32.5 44.925V63.0084C35.5333 63.3195 38.5181 64.0681 41.4542 65.2542C44.3903 66.4403 47.2389 68.025 50 70.0084ZM50.175 42.3C47.6472 42.3 45.5181 41.4348 43.7875 39.7042C42.0569 37.9737 41.1917 35.8445 41.1917 33.3167C41.1917 30.7889 42.0569 28.6598 43.7875 26.9292C45.5181 25.1987 47.6472 24.3334 50.175 24.3334C52.7028 24.3334 54.8319 25.1987 56.5625 26.9292C58.2931 28.6598 59.1583 30.7889 59.1583 33.3167C59.1583 35.8445 58.2931 37.9737 56.5625 39.7042C54.8319 41.4348 52.7028 42.3 50.175 42.3ZM50.1843 38.8C51.6948 38.8 52.9847 38.2622 54.0542 37.1865C55.1236 36.1109 55.6583 34.8178 55.6583 33.3074C55.6583 31.7969 55.1205 30.507 54.0448 29.4375C52.9692 28.3681 51.6761 27.8334 50.1657 27.8334C48.6552 27.8334 47.3653 28.3712 46.2958 29.4469C45.2264 30.5225 44.6917 31.8156 44.6917 33.326C44.6917 34.8365 45.2295 36.1264 46.3052 37.1959C47.3808 38.2653 48.6739 38.8 50.1843 38.8Z" fill="#228B22"/>
</g>
</svg>
