<svg width="67" height="67" viewBox="0 0 67 67" fill="none" xmlns="http://www.w3.org/2000/svg">
<path d="M66.3066 33.5537C66.3066 51.5152 51.7459 66.0759 33.7845 66.0759C15.823 66.0759 1.26235 51.5152 1.26235 33.5537C1.26235 15.5923 15.823 1.03164 33.7845 1.03164C51.7459 1.03164 66.3066 15.5923 66.3066 33.5537Z" fill="#1E531E" stroke="#DAE6DA" stroke-width="0.94267"/>
<g clip-path="url(#clip0_157_291)">
<path d="M48.1299 25.5826C48.1299 25.468 48.1045 25.3534 48.0535 25.2451C47.9517 25.0287 47.7543 24.8822 47.5378 24.8377L34.5688 18.5473C34.3587 18.4455 34.1104 18.4455 33.9003 18.5473L20.804 24.895C20.5494 25.0159 20.3838 25.2706 20.3711 25.5571V25.5635C20.3711 25.5698 20.3711 25.5762 20.3711 25.5889V41.5184C20.3711 41.8113 20.5366 42.0787 20.804 42.206L33.9003 48.5536C33.9067 48.5536 33.9067 48.5536 33.9131 48.56C33.9322 48.5664 33.9513 48.5727 33.9704 48.5855C33.9767 48.5855 33.9831 48.5918 33.9958 48.5918C34.0149 48.5982 34.034 48.6046 34.0531 48.6109C34.0595 48.6109 34.0659 48.6173 34.0722 48.6173C34.0913 48.6237 34.1168 48.6237 34.1359 48.63C34.1423 48.63 34.1486 48.63 34.155 48.63C34.1805 48.63 34.2123 48.6364 34.2378 48.6364C34.2632 48.6364 34.2951 48.6364 34.3205 48.63C34.3269 48.63 34.3333 48.63 34.3396 48.63C34.3587 48.63 34.3842 48.6237 34.4033 48.6173C34.4097 48.6173 34.416 48.6109 34.4224 48.6109C34.4415 48.6046 34.4606 48.5982 34.4797 48.5918C34.4861 48.5918 34.4924 48.5855 34.5052 48.5855C34.5243 48.5791 34.5434 48.5727 34.5625 48.56C34.5688 48.56 34.5688 48.56 34.5752 48.5536L47.7097 42.1869C47.9708 42.0596 48.1427 41.7922 48.1427 41.4993V25.6017C48.1299 25.5953 48.1299 25.5889 48.1299 25.5826ZM34.2314 20.0817L45.5896 25.5889L41.4067 27.6199L30.0485 22.1127L34.2314 20.0817ZM34.2314 31.0961L22.8732 25.5889L28.2976 22.9595L39.6558 28.4667L34.2314 31.0961ZM21.8991 26.8177L33.4674 32.4268V46.6436L21.8991 41.0345V26.8177ZM34.9954 46.6436V32.4268L40.4262 29.7909V33.5091C40.4262 33.9293 40.77 34.2731 41.1902 34.2731C41.6104 34.2731 41.9542 33.9293 41.9542 33.5091V29.046L46.6019 26.7922V41.0091L34.9954 46.6436Z" fill="#F8F8FF"/>
</g>
<defs>
<clipPath id="clip0_157_291">
<rect width="30.1654" height="30.1654" fill="white" transform="translate(19.1738 18.4709)"/>
</clipPath>
</defs>
</svg>
