<svg width="67" height="67" viewBox="0 0 67 67" fill="none" xmlns="http://www.w3.org/2000/svg">
<path d="M66.2245 33.5537C66.2245 51.5152 51.6639 66.0759 33.7024 66.0759C15.741 66.0759 1.18032 51.5152 1.18032 33.5537C1.18032 15.5923 15.741 1.03164 33.7024 1.03164C51.6639 1.03164 66.2245 15.5923 66.2245 33.5537Z" fill="#1E531E" stroke="#F8F8FF" stroke-width="0.94267"/>
<g clip-path="url(#clip0_157_279)">
<path d="M45.7528 44.6152L44.0169 25.0523C43.9857 24.6651 43.661 24.3717 43.2676 24.3717H39.6085C39.6023 21.1185 36.9548 18.4709 33.7016 18.4709C30.4484 18.4709 27.8009 21.1185 27.7946 24.3717H24.1356C23.7484 24.3717 23.4237 24.6651 23.3863 25.0523L21.6504 44.6152C21.6504 44.6401 21.6504 44.6589 21.6504 44.6838C21.6504 46.863 23.6548 48.6364 26.115 48.6364H41.2882C43.7484 48.6364 45.7528 46.863 45.7528 44.6838C45.7528 44.6589 45.7528 44.6401 45.7528 44.6152ZM33.7016 19.9695C36.1306 19.9695 38.1037 21.9427 38.1099 24.3717H29.2932C29.2995 21.9427 31.2726 19.9695 33.7016 19.9695ZM41.2882 47.1315H26.115C24.4915 47.1315 23.1677 46.0513 23.149 44.7088L24.8224 25.8703H27.7946V28.499C27.7946 28.9111 28.1318 29.2483 28.5439 29.2483C28.956 29.2483 29.2932 28.9111 29.2932 28.499V25.8703H38.1099V28.499C38.1099 28.9111 38.4471 29.2483 38.8592 29.2483C39.2714 29.2483 39.6085 28.9111 39.6085 28.499V25.8703H42.5807L44.2542 44.7151C44.2354 46.0513 42.9117 47.1315 41.2882 47.1315Z" fill="#F8F8FF"/>
<path d="M36.8176 34.0687L32.3967 38.4896L30.5922 36.685C30.2987 36.3915 29.8241 36.3915 29.5307 36.685C29.2372 36.9785 29.2372 37.453 29.5307 37.7465L31.866 40.0818C32.0096 40.2254 32.2031 40.3004 32.3967 40.3004C32.5903 40.3004 32.7776 40.2254 32.9275 40.0818L37.8791 35.1302C38.1725 34.8367 38.1725 34.3622 37.8791 34.0687C37.5856 33.7815 37.111 33.7815 36.8176 34.0687Z" fill="#F8F8FF"/>
</g>
<defs>
<clipPath id="clip0_157_279">
<rect width="30.1654" height="30.1654" fill="white" transform="translate(18.6191 18.4709)"/>
</clipPath>
</defs>
</svg>
