<svg width="67" height="67" viewBox="0 0 67 67" fill="none" xmlns="http://www.w3.org/2000/svg">
<path d="M66.5338 33.5537C66.5338 51.7755 51.7621 66.5472 33.5403 66.5472C15.3185 66.5472 0.546875 51.7755 0.546875 33.5537C0.546875 15.332 15.3185 0.560303 33.5403 0.560303C51.7621 0.560303 66.5338 15.332 66.5338 33.5537Z" fill="#1E531E"/>
<g clip-path="url(#clip0_157_261)">
<path d="M45.5148 39.4963C44.5934 39.4963 43.7181 39.8571 43.0578 40.5098C42.3975 41.1701 42.029 42.03 42.029 42.9514C42.029 43.8727 42.3898 44.7327 43.0578 45.393C43.7258 46.0456 44.5934 46.4065 45.5148 46.4065C47.4036 46.4065 48.9392 44.8555 48.9392 42.9514C48.9392 41.0472 47.4036 39.4963 45.5148 39.4963ZM45.5148 44.8709C44.4552 44.8709 43.5646 43.9956 43.5646 42.9514C43.5646 41.9072 44.4552 41.0319 45.5148 41.0319C46.559 41.0319 47.4036 41.8918 47.4036 42.9514C47.4036 44.0109 46.559 44.8709 45.5148 44.8709ZM46.4054 27.9869C46.2672 27.8564 46.083 27.7873 45.891 27.7873H41.9522C41.5299 27.7873 41.1844 28.1328 41.1844 28.5551V34.851C41.1844 35.2733 41.5299 35.6188 41.9522 35.6188H48.2021C48.6244 35.6188 48.9699 35.2733 48.9699 34.851V30.6358C48.9699 30.4208 48.8778 30.2135 48.7165 30.0676L46.4054 27.9869ZM47.4343 34.0832H42.72V29.3152H45.5916L47.4343 30.9736V34.0832ZM26.765 39.4963C25.8437 39.4963 24.9684 39.8571 24.3081 40.5098C23.6478 41.1701 23.2792 42.03 23.2792 42.9514C23.2792 43.8727 23.6401 44.7327 24.3081 45.393C24.9761 46.0456 25.8437 46.4065 26.765 46.4065C28.6538 46.4065 30.1894 44.8555 30.1894 42.9514C30.1894 41.0472 28.6538 39.4963 26.765 39.4963ZM26.765 44.8709C25.7055 44.8709 24.8148 43.9956 24.8148 42.9514C24.8148 41.9072 25.7055 41.0319 26.765 41.0319C27.8092 41.0319 28.6538 41.8918 28.6538 42.9514C28.6538 44.0109 27.8092 44.8709 26.765 44.8709ZM21.6438 40.4406H20.1005V38.3983C20.1005 37.976 19.755 37.6305 19.3327 37.6305C18.9104 37.6305 18.5649 37.976 18.5649 38.3983V41.2085C18.5649 41.6307 18.9104 41.9763 19.3327 41.9763H21.6438C22.0661 41.9763 22.4116 41.6307 22.4116 41.2085C22.4116 40.7862 22.0661 40.4406 21.6438 40.4406ZM25.5366 36.2561C25.5366 35.8338 25.191 35.4883 24.7688 35.4883H15.4553C15.033 35.4883 14.6875 35.8338 14.6875 36.2561C14.6875 36.6784 15.033 37.0239 15.4553 37.0239H24.7688C25.191 37.0239 25.5366 36.6861 25.5366 36.2561ZM17.0139 33.4844L26.3274 33.5381C26.7497 33.5381 27.0952 33.2003 27.1029 32.778C27.1105 32.348 26.765 32.0025 26.3427 32.0025L17.0293 31.9488C17.0216 31.9488 17.0216 31.9488 17.0216 31.9488C16.5993 31.9488 16.2538 32.2866 16.2538 32.7089C16.2461 33.1388 16.5917 33.4844 17.0139 33.4844ZM18.5803 29.9985H27.8937C28.316 29.9985 28.6615 29.653 28.6615 29.2307C28.6615 28.8084 28.316 28.4629 27.8937 28.4629H18.5803C18.158 28.4629 17.8125 28.8084 17.8125 29.2307C17.8125 29.653 18.158 29.9985 18.5803 29.9985ZM52.1102 28.962L46.6127 24.4089C46.4745 24.2938 46.3056 24.2323 46.1213 24.2323H39.6564V21.4682C39.6564 21.046 39.3109 20.7004 38.8886 20.7004H19.3327C18.9104 20.7004 18.5649 21.046 18.5649 21.4682V27.0886C18.5649 27.5109 18.9104 27.8564 19.3327 27.8564C19.755 27.8564 20.1005 27.5109 20.1005 27.0886V22.236H38.1285V40.4406H31.8325C31.4102 40.4406 31.0647 40.7862 31.0647 41.2085C31.0647 41.6307 31.4102 41.9763 31.8325 41.9763H41.2074C41.6297 41.9763 41.9752 41.6307 41.9752 41.2085C41.9752 40.7862 41.6297 40.4406 41.2074 40.4406H39.6641V25.7679H45.8526L50.8587 29.9141L50.8049 40.4253H50.0064C49.5841 40.4253 49.2386 40.7708 49.2386 41.1931C49.2386 41.6154 49.5841 41.9609 50.0064 41.9609H51.5651C51.9874 41.9609 52.3329 41.6231 52.3329 41.2008L52.3943 29.5609C52.3866 29.3305 52.2868 29.1079 52.1102 28.962Z" fill="#F8F8FF"/>
</g>
<defs>
<clipPath id="clip0_157_261">
<rect width="37.7068" height="37.7068" fill="white" transform="translate(14.6875 14.7002)"/>
</clipPath>
</defs>
</svg>
