<svg width="153" height="22" viewBox="0 0 153 22" fill="none" xmlns="http://www.w3.org/2000/svg">
<path d="M10.9382 17.9743L16.0235 21.2084C16.6794 21.6228 17.4866 21.0063 17.2949 20.2483L15.8217 14.447C15.7819 14.2862 15.7882 14.1174 15.84 13.9601C15.8918 13.8027 15.9869 13.6632 16.1143 13.5577L20.675 9.74742C21.2703 9.25219 20.9676 8.25163 20.1907 8.2011L14.2376 7.81704C14.0752 7.80757 13.919 7.75092 13.7882 7.654C13.6574 7.55708 13.5576 7.42409 13.5011 7.27128L11.2813 1.67216C11.2225 1.51035 11.1155 1.37058 10.9747 1.27181C10.8339 1.17304 10.6662 1.12006 10.4943 1.12006C10.3224 1.12006 10.1547 1.17304 10.0139 1.27181C9.87306 1.37058 9.76602 1.51035 9.70726 1.67216L7.48749 7.27128C7.43091 7.42409 7.33113 7.55708 7.20032 7.654C7.06951 7.75092 6.91335 7.80757 6.75092 7.81704L0.797886 8.2011C0.0209637 8.25163 -0.281733 9.25219 0.313571 9.74742L4.8742 13.5577C5.00167 13.6632 5.09677 13.8027 5.14854 13.9601C5.20031 14.1174 5.20664 14.2862 5.16681 14.447L3.80467 19.8238C3.57261 20.7334 4.54124 21.4712 5.31816 20.976L10.0503 17.9743C10.183 17.8898 10.337 17.8449 10.4943 17.8449C10.6515 17.8449 10.8055 17.8898 10.9382 17.9743Z" fill="#FF9110"/>
<path d="M43.6121 17.9742L48.6974 21.2084C49.3532 21.6227 50.1604 21.0062 49.9687 20.2482L48.4956 14.447C48.4557 14.2862 48.4621 14.1174 48.5138 13.96C48.5656 13.8027 48.6607 13.6632 48.7882 13.5576L53.3488 9.74736C53.9441 9.25213 53.6414 8.25157 52.8645 8.20104L46.9115 7.81698C46.749 7.80751 46.5929 7.75086 46.4621 7.65394C46.3313 7.55701 46.2315 7.42403 46.1749 7.27122L43.9551 1.6721C43.8964 1.51029 43.7893 1.37052 43.6485 1.27175C43.5077 1.17298 43.34 1.12 43.1681 1.12C42.9962 1.12 42.8285 1.17298 42.6877 1.27175C42.5469 1.37052 42.4398 1.51029 42.3811 1.6721L40.1613 7.27122C40.1047 7.42403 40.005 7.55701 39.8741 7.65394C39.7433 7.75086 39.5872 7.80751 39.4248 7.81698L33.4717 8.20104C32.6948 8.25157 32.3921 9.25213 32.9874 9.74736L37.548 13.5576C37.6755 13.6632 37.7706 13.8027 37.8224 13.96C37.8741 14.1174 37.8805 14.2862 37.8406 14.447L36.4785 19.8238C36.2464 20.7334 37.2151 21.4711 37.992 20.9759L42.7241 17.9742C42.8568 17.8897 43.0108 17.8448 43.1681 17.8448C43.3254 17.8448 43.4794 17.8897 43.6121 17.9742Z" fill="#FF9110"/>
<path d="M76.2859 17.9742L81.3712 21.2084C82.027 21.6227 82.8342 21.0062 82.6425 20.2482L81.1694 14.447C81.1296 14.2862 81.1359 14.1174 81.1877 13.96C81.2394 13.8027 81.3345 13.6632 81.462 13.5576L86.0226 9.74736C86.6179 9.25213 86.3152 8.25157 85.5383 8.20104L79.5853 7.81698C79.4229 7.80751 79.2667 7.75086 79.1359 7.65394C79.0051 7.55701 78.9053 7.42403 78.8487 7.27122L76.6289 1.6721C76.5702 1.51029 76.4631 1.37052 76.3223 1.27175C76.1816 1.17298 76.0138 1.12 75.8419 1.12C75.67 1.12 75.5023 1.17298 75.3615 1.27175C75.2207 1.37052 75.1137 1.51029 75.0549 1.6721L72.8351 7.27122C72.7786 7.42403 72.6788 7.55701 72.548 7.65394C72.4172 7.75086 72.261 7.80751 72.0986 7.81698L66.1455 8.20104C65.3686 8.25157 65.0659 9.25213 65.6612 9.74736L70.2219 13.5576C70.3493 13.6632 70.4444 13.8027 70.4962 13.96C70.548 14.1174 70.5543 14.2862 70.5145 14.447L69.1523 19.8238C68.9203 20.7334 69.8889 21.4711 70.6658 20.9759L75.398 17.9742C75.5307 17.8897 75.6847 17.8448 75.8419 17.8448C75.9992 17.8448 76.1532 17.8897 76.2859 17.9742Z" fill="#FF9110"/>
<path d="M108.958 17.9742L114.043 21.2084C114.699 21.6227 115.506 21.0062 115.314 20.2482L113.841 14.447C113.801 14.2862 113.808 14.1174 113.86 13.96C113.911 13.8027 114.006 13.6632 114.134 13.5576L118.695 9.74736C119.29 9.25213 118.987 8.25157 118.21 8.20104L112.257 7.81698C112.095 7.80751 111.939 7.75086 111.808 7.65394C111.677 7.55701 111.577 7.42403 111.521 7.27122L109.301 1.6721C109.242 1.51029 109.135 1.37052 108.994 1.27175C108.853 1.17298 108.686 1.12 108.514 1.12C108.342 1.12 108.174 1.17298 108.033 1.27175C107.893 1.37052 107.786 1.51029 107.727 1.6721L105.507 7.27122C105.45 7.42403 105.351 7.55701 105.22 7.65394C105.089 7.75086 104.933 7.80751 104.77 7.81698L98.8174 8.20104C98.0405 8.25157 97.7378 9.25213 98.3331 9.74736L102.894 13.5576C103.021 13.6632 103.116 13.8027 103.168 13.96C103.22 14.1174 103.226 14.2862 103.186 14.447L101.824 19.8238C101.592 20.7334 102.561 21.4711 103.338 20.9759L108.07 17.9742C108.203 17.8897 108.357 17.8448 108.514 17.8448C108.671 17.8448 108.825 17.8897 108.958 17.9742Z" fill="#FF9110"/>
<path d="M141.632 17.9742L146.717 21.2084C147.373 21.6227 148.18 21.0062 147.988 20.2482L146.515 14.447C146.475 14.2862 146.482 14.1174 146.533 13.96C146.585 13.8027 146.68 13.6632 146.808 13.5576L151.368 9.74736C151.964 9.25213 151.661 8.25157 150.884 8.20104L144.931 7.81698C144.769 7.80751 144.612 7.75086 144.482 7.65394C144.351 7.55701 144.251 7.42403 144.194 7.27122L141.975 1.6721C141.916 1.51029 141.809 1.37052 141.668 1.27175C141.527 1.17298 141.36 1.12 141.188 1.12C141.016 1.12 140.848 1.17298 140.707 1.27175C140.566 1.37052 140.459 1.51029 140.401 1.6721L138.181 7.27122C138.124 7.42403 138.024 7.55701 137.894 7.65394C137.763 7.75086 137.607 7.80751 137.444 7.81698L131.491 8.20104C130.714 8.25157 130.412 9.25213 131.007 9.74736L135.568 13.5576C135.695 13.6632 135.79 13.8027 135.842 13.96C135.894 14.1174 135.9 14.2862 135.86 14.447L134.498 19.8238C134.266 20.7334 135.235 21.4711 136.012 20.9759L140.744 17.9742C140.876 17.8897 141.03 17.8448 141.188 17.8448C141.345 17.8448 141.499 17.8897 141.632 17.9742Z" stroke="#FF9110" stroke-width="1.22463" stroke-linecap="round" stroke-linejoin="round"/>
</svg>
