<svg width="67" height="67" viewBox="0 0 67 67" fill="none" xmlns="http://www.w3.org/2000/svg">
<path d="M66.1445 33.5537C66.1445 51.5152 51.5838 66.0759 33.6224 66.0759C15.6609 66.0759 1.10024 51.5152 1.10024 33.5537C1.10024 15.5923 15.6609 1.03164 33.6224 1.03164C51.5838 1.03164 66.1445 15.5923 66.1445 33.5537Z" fill="#1E531E" stroke="#DAE6DA" stroke-width="0.94267"/>
<g clip-path="url(#clip0_157_269)">
<path d="M44.4145 29.9414V28.7817C44.4145 26.006 43.4322 23.4267 41.6514 21.5128C39.8263 19.5483 37.3167 18.4709 34.579 18.4709H33.6221C30.8844 18.4709 28.3748 19.5483 26.5497 21.5128C24.7689 23.4267 23.7866 26.006 23.7866 28.7817V29.9414C21.6256 30.0872 19.9082 31.887 19.9082 34.086V35.8985C19.9082 38.1862 21.7714 40.0494 24.0591 40.0494H26.3976C26.8158 40.0494 27.158 39.7072 27.158 39.2889V30.6892C27.158 30.271 26.8158 29.9287 26.3976 29.9287H25.3076V28.7817C25.3076 23.7689 28.8818 19.9919 33.6157 19.9919H34.5727C39.3129 19.9919 42.8808 23.7689 42.8808 28.7817V29.9287H41.7908C41.3726 29.9287 41.0303 30.271 41.0303 30.6892V39.2826C41.0303 39.7008 41.3726 40.043 41.7908 40.043H42.8555C42.545 44.0102 39.8136 44.9291 38.5461 45.1382C38.1976 44.0672 37.19 43.2941 36.0049 43.2941H34.1037C32.6335 43.2941 31.4357 44.4918 31.4357 45.9621C31.4357 47.4323 32.6335 48.6364 34.1037 48.6364H36.0112C37.2407 48.6364 38.2736 47.7999 38.5842 46.6718C39.2052 46.5831 40.1875 46.3613 41.1634 45.7909C42.5386 44.9861 44.1673 43.3448 44.3828 40.0367C46.5565 39.9036 48.2802 38.0975 48.2802 35.8921V34.0797C48.2865 31.887 46.5755 30.0808 44.4145 29.9414ZM25.6498 38.5221H24.0718C22.6206 38.5221 21.4418 37.3434 21.4418 35.8921V34.0797C21.4418 32.6284 22.6206 31.4497 24.0718 31.4497H25.6498V38.5221ZM36.0112 47.1154H34.1037C33.47 47.1154 32.9567 46.6021 32.9567 45.9684C32.9567 45.3347 33.47 44.8213 34.1037 44.8213H36.0112C36.645 44.8213 37.1583 45.3347 37.1583 45.9684C37.1583 46.6021 36.645 47.1154 36.0112 47.1154ZM46.7656 35.8921C46.7656 37.3434 45.5869 38.5221 44.1356 38.5221H42.5576V31.4497H44.1356C45.5869 31.4497 46.7656 32.6284 46.7656 34.0797V35.8921Z" fill="#F8F8F8"/>
</g>
<defs>
<clipPath id="clip0_157_269">
<rect width="30.1654" height="30.1654" fill="white" transform="translate(19.0117 18.4709)"/>
</clipPath>
</defs>
</svg>
