<svg width="100" height="100" viewBox="0 0 100 100" fill="none" xmlns="http://www.w3.org/2000/svg">
<circle cx="50" cy="50" r="50" fill="#F8F8F8"/>
<mask id="mask0_157_315" style="mask-type:alpha" maskUnits="userSpaceOnUse" x="22" y="22" width="56" height="56">
<rect x="22" y="22" width="56" height="56" fill="#D9D9D9"/>
</mask>
<g mask="url(#mask0_157_315)">
<path d="M48.25 70.4167V52.3917H47.0833C44.5944 52.3917 42.2514 51.9153 40.0542 50.9625C37.8569 50.0097 35.9028 48.6583 34.1917 46.9083C32.4806 45.1583 31.1875 43.1361 30.3125 40.8417C29.4375 38.5472 29 36.1556 29 33.6667V29H33.5687C35.9673 29 38.275 29.4764 40.4917 30.4292C42.7083 31.3819 44.6917 32.7333 46.4417 34.4833C47.725 35.8056 48.7847 37.2833 49.6208 38.9167C50.4569 40.55 51.05 42.2806 51.4 44.1083C51.6975 43.6456 52.0246 43.1993 52.3812 42.7696C52.7382 42.3399 53.1111 41.9111 53.5 41.4833C55.25 39.7333 57.2333 38.3819 59.45 37.4292C61.6667 36.4764 63.9936 36 66.4307 36H71V40.6667C71 43.1556 70.5337 45.5472 69.6012 47.8417C68.6686 50.1361 67.346 52.1583 65.6333 53.9083C63.8833 55.6583 61.9086 57 59.709 57.9333C57.5094 58.8667 55.2064 59.3333 52.8 59.3333H51.75V70.4167H48.25ZM48.3083 48.8333C48.3083 46.4611 47.9194 44.2542 47.1417 42.2125C46.3639 40.1708 45.2944 38.4403 43.9333 37.0208C42.5722 35.6014 40.9 34.4931 38.9167 33.6958C36.9333 32.8986 34.7944 32.5 32.5 32.5C32.5 34.95 32.8597 37.1958 33.5792 39.2375C34.2986 41.2792 35.3389 43.0194 36.7 44.4583C38.3333 46.2083 40.0931 47.375 41.9792 47.9583C43.8653 48.5417 45.975 48.8333 48.3083 48.8333ZM51.75 55.8333C54.0833 55.8333 56.2417 55.4542 58.225 54.6958C60.2083 53.9375 61.8806 52.8486 63.2417 51.4292C64.6028 50.0097 65.6528 48.2792 66.3917 46.2375C67.1306 44.1958 67.5 41.95 67.5 39.5C65.1667 39.5 63.0083 39.8986 61.025 40.6958C59.0417 41.4931 57.3694 42.5917 56.0083 43.9917C54.3361 45.7417 53.2083 47.5694 52.625 49.475C52.0417 51.3806 51.75 53.5 51.75 55.8333Z" fill="#228B22"/>
</g>
</svg>
